<svg xmlns="http://www.w3.org/2000/svg" viewBox="0 0 1500 500" width="1500" height="500">
  <defs>
    <!-- Background glows -->
    <radialGradient id="goldGlow" cx="78%" cy="55%" r="50%">
      <stop offset="0%" stop-color="#ffd11a" stop-opacity="0.28"/>
      <stop offset="60%" stop-color="#ffd11a" stop-opacity="0.06"/>
      <stop offset="100%" stop-color="#ffd11a" stop-opacity="0"/>
    </radialGradient>
    <radialGradient id="blueGlow" cx="8%" cy="80%" r="45%">
      <stop offset="0%" stop-color="#4aa3ff" stop-opacity="0.18"/>
      <stop offset="100%" stop-color="#4aa3ff" stop-opacity="0"/>
    </radialGradient>
    <radialGradient id="topGlow" cx="50%" cy="0%" r="60%">
      <stop offset="0%" stop-color="#4aa3ff" stop-opacity="0.08"/>
      <stop offset="100%" stop-color="#4aa3ff" stop-opacity="0"/>
    </radialGradient>

    <!-- Subtle grid overlay -->
    <pattern id="grid" width="48" height="48" patternUnits="userSpaceOnUse">
      <path d="M 48 0 L 0 0 0 48" fill="none" stroke="rgba(138,170,210,0.05)" stroke-width="1"/>
    </pattern>

    <!-- Soft glow for the gold underline -->
    <filter id="goldBlur" x="-20%" y="-50%" width="140%" height="200%">
      <feGaussianBlur stdDeviation="3"/>
    </filter>

    <!-- Reflection gradient for top edge of device panels -->
    <linearGradient id="panelEdge" x1="0%" y1="0%" x2="0%" y2="100%">
      <stop offset="0%" stop-color="rgba(255,255,255,0.10)"/>
      <stop offset="100%" stop-color="rgba(255,255,255,0)"/>
    </linearGradient>

    <!-- Radar fill -->
    <radialGradient id="radarFill" cx="50%" cy="50%" r="50%">
      <stop offset="0%" stop-color="#ffd11a" stop-opacity="0.55"/>
      <stop offset="100%" stop-color="#ffd11a" stop-opacity="0.16"/>
    </radialGradient>

    <!-- Drop shadow for device panels -->
    <filter id="deviceShadow" x="-10%" y="-10%" width="120%" height="140%">
      <feGaussianBlur in="SourceAlpha" stdDeviation="14"/>
      <feOffset dx="0" dy="18"/>
      <feComponentTransfer><feFuncA type="linear" slope="0.55"/></feComponentTransfer>
      <feMerge><feMergeNode/><feMergeNode in="SourceGraphic"/></feMerge>
    </filter>

    <!-- Mask to keep grid behind devices subtle -->
    <linearGradient id="vignette" x1="0%" y1="0%" x2="0%" y2="100%">
      <stop offset="0%" stop-color="#06111f" stop-opacity="0"/>
      <stop offset="100%" stop-color="#06111f" stop-opacity="0.4"/>
    </linearGradient>
  </defs>

  <!-- ── Background layers ── -->
  <rect width="1500" height="500" fill="#06111f"/>
  <rect width="1500" height="500" fill="url(#grid)" opacity="0.6"/>
  <rect width="1500" height="500" fill="url(#topGlow)"/>
  <rect width="1500" height="500" fill="url(#blueGlow)"/>
  <rect width="1500" height="500" fill="url(#goldGlow)"/>
  <rect width="1500" height="500" fill="url(#vignette)"/>

  <!-- ── Headline ── -->
  <g text-anchor="middle" font-family="'Inter', -apple-system, sans-serif">
    <text x="750" y="148" font-size="74" font-weight="800" fill="#f6f8fc" letter-spacing="-2.5">Beat the field</text>
    <text x="750" y="226" font-size="74" font-weight="800" fill="#f6f8fc" letter-spacing="-2.5">
      in <tspan fill="#ffd11a">DraftKings DFS.</tspan>
    </text>

    <!-- Gold sharp underline accent under "DraftKings DFS." (curves upward slightly like reference) -->
    <path d="M 555 252 Q 765 242 945 252" stroke="#ffd11a" stroke-width="4" fill="none" stroke-linecap="round" opacity="0.55" filter="url(#goldBlur)"/>
    <path d="M 555 252 Q 765 242 945 252" stroke="#ffd11a" stroke-width="3" fill="none" stroke-linecap="round"/>

    <!-- Tiny brand pill under the headline -->
    <g transform="translate(750, 282)">
      <rect x="-92" y="-12" width="184" height="22" rx="11" fill="rgba(255,209,26,0.10)" stroke="rgba(255,209,26,0.32)" stroke-width="1"/>
      <circle cx="-78" cy="-1" r="3" fill="#ffd11a"/>
      <text x="3" y="3" font-size="11" font-weight="700" fill="#ffd11a" letter-spacing="1.4" text-anchor="middle">SHARP TENNIS PROJECTIONS</text>
    </g>
  </g>

  <!-- ═══════════════════════════════════════════════════════════
       DEVICE MOCKUPS (bottom half)
       Three overlapping panels, all tilted slightly for perspective.
       Layout (back-to-front): right monitor → main monitor → phone.
       ═══════════════════════════════════════════════════════════ -->

  <!-- ── RIGHT MONITOR: player profile / radar ── -->
  <g transform="translate(1095, 340) rotate(-6)" filter="url(#deviceShadow)">
    <!-- Panel -->
    <rect x="-20" y="-10" width="440" height="280" rx="14" fill="#0a1c30" stroke="rgba(138,170,210,0.20)" stroke-width="1"/>
    <rect x="-20" y="-10" width="440" height="2" rx="14" fill="url(#panelEdge)" opacity="0.8"/>

    <!-- Header -->
    <g font-family="'Inter', sans-serif">
      <rect x="0" y="10" width="34" height="34" rx="9" fill="rgba(255,209,26,0.14)" stroke="rgba(255,209,26,0.32)" stroke-width="1"/>
      <circle cx="17" cy="27" r="9" fill="none" stroke="#ffd11a" stroke-width="1.6"/>
      <circle cx="17" cy="27" r="5" fill="none" stroke="#ffd11a" stroke-width="1.6"/>
      <circle cx="17" cy="27" r="1.5" fill="#ffd11a"/>
      <text x="46" y="26" font-size="15" font-weight="800" fill="#ffd11a" letter-spacing="-0.4">Player Tactics</text>
      <text x="46" y="42" font-size="9" fill="#8ea0bb" letter-spacing="0.4">strengths · weaknesses · tour rankings</text>
    </g>

    <!-- Player name + chip -->
    <g font-family="'Inter', sans-serif">
      <text x="0" y="76" font-size="11" font-weight="700" fill="#60718c" letter-spacing="1.4">PLAYER</text>
      <text x="0" y="98" font-size="14" font-weight="700" fill="#f6f8fc">🇺🇸 Mark Schoenhaus</text>
      <rect x="335" y="84" width="68" height="20" rx="10" fill="rgba(255,209,26,0.14)" stroke="rgba(255,209,26,0.32)"/>
      <circle cx="348" cy="94" r="2.5" fill="#ffd11a"/>
      <text x="385" y="98" font-size="10" font-weight="700" fill="#ffd11a" letter-spacing="0.6" text-anchor="middle">RIGHTY</text>
    </g>

    <!-- Small radar -->
    <g transform="translate(20, 120)">
      <!-- background octagons -->
      <polygon points="80,0 120,16 140,55 120,95 80,110 40,95 20,55 40,16" fill="none" stroke="rgba(138,170,210,0.2)" stroke-width="1"/>
      <polygon points="80,18 107,30 122,55 107,80 80,92 53,80 38,55 53,30" fill="none" stroke="rgba(138,170,210,0.12)" stroke-width="1"/>
      <polygon points="80,37 95,44 103,55 95,67 80,73 65,67 57,55 65,44" fill="none" stroke="rgba(138,170,210,0.08)" stroke-width="1"/>
      <!-- player polygon (Schoenhaus pattern) -->
      <polygon points="80,4 122,22 132,55 117,84 80,108 50,73 26,55 56,32"
               fill="url(#radarFill)" stroke="#ffd11a" stroke-width="2" stroke-linejoin="round"/>
      <g fill="#ffd11a">
        <circle cx="80" cy="4" r="2.5"/>
        <circle cx="122" cy="22" r="2.5"/>
        <circle cx="132" cy="55" r="2.5"/>
        <circle cx="117" cy="84" r="2.5"/>
        <circle cx="80" cy="108" r="2.5"/>
        <circle cx="50" cy="73" r="2.5"/>
        <circle cx="26" cy="55" r="2.5"/>
        <circle cx="56" cy="32" r="2.5"/>
      </g>
    </g>

    <!-- Right column: tactical notes + S/W stack -->
    <g font-family="'Inter', sans-serif">
      <!-- Tactical Notes -->
      <text x="200" y="135" font-size="9" font-weight="700" fill="#ffd11a" letter-spacing="1.2">TACTICAL NOTES</text>
      <rect x="200" y="142" width="200" height="40" rx="7" fill="rgba(25,210,127,0.08)" stroke="rgba(25,210,127,0.32)" stroke-width="1"/>
      <rect x="200" y="142" width="3" height="40" rx="2" fill="#19d27f"/>
      <text x="210" y="158" font-size="9" fill="#f6f8fc">▲ Excels vs Strong Return</text>
      <text x="210" y="172" font-size="9" fill="#8ea0bb">+0.99 PR vs P25→P75 (n=5)</text>

      <!-- S / W -->
      <g transform="translate(200, 198)">
        <rect x="0" y="0" width="95" height="60" rx="7" fill="rgba(13,29,48,0.7)" stroke="rgba(25,210,127,0.32)"/>
        <text x="8" y="14" font-size="9" font-weight="700" fill="#19d27f" letter-spacing="1.2">STRENGTH</text>
        <text x="8" y="36" font-size="20" font-weight="800" fill="#19d27f">8.06</text>
        <text x="8" y="50" font-size="9" fill="#8ea0bb">FH · 98th pct</text>

        <rect x="105" y="0" width="95" height="60" rx="7" fill="rgba(13,29,48,0.7)" stroke="rgba(255,93,79,0.32)"/>
        <text x="113" y="14" font-size="9" font-weight="700" fill="#ff5d4f" letter-spacing="1.2">WEAKNESS</text>
        <text x="113" y="36" font-size="20" font-weight="800" fill="#ff5d4f">5.48</text>
        <text x="113" y="50" font-size="9" fill="#8ea0bb">Suppr · 2nd pct</text>
      </g>
    </g>
  </g>

  <!-- ── MAIN MONITOR: matchups table (center, dominant) ── -->
  <g transform="translate(370, 290) rotate(-2.5)" filter="url(#deviceShadow)">
    <!-- Panel -->
    <rect x="0" y="0" width="780" height="340" rx="16" fill="#0a1c30" stroke="rgba(138,170,210,0.22)" stroke-width="1"/>
    <rect x="0" y="0" width="780" height="2" rx="16" fill="url(#panelEdge)" opacity="0.9"/>

    <!-- KPI strip -->
    <g font-family="'Inter', sans-serif">
      <!-- Weather KPI -->
      <g transform="translate(16, 16)">
        <rect width="240" height="76" rx="10" fill="rgba(16,37,61,0.85)" stroke="rgba(138,170,210,0.16)"/>
        <text x="14" y="22" font-size="9" font-weight="700" fill="#60718c" letter-spacing="1.4">WEATHER · HAMBURG</text>
        <g transform="translate(14, 38)" fill="none" stroke="#8ea0bb" stroke-width="1.6" stroke-linecap="round" stroke-linejoin="round">
          <path d="M11 8a3 3 0 1 0 -1 -5.8 4 4 0 0 0 -7.7 1.5 2.7 2.7 0 0 0 .3 5z"/>
        </g>
        <text x="40" y="56" font-size="24" font-weight="800" fill="#ffd11a">53<tspan font-size="14" fill="#8ea0bb">°F · Overcast</tspan></text>
        <text x="14" y="68" font-size="9" fill="#8ea0bb">Wind 8 km/h · Humidity 76%</text>
      </g>
      <!-- Court Pace KPI -->
      <g transform="translate(270, 16)">
        <rect width="240" height="76" rx="10" fill="rgba(16,37,61,0.85)" stroke="rgba(138,170,210,0.16)"/>
        <text x="14" y="22" font-size="9" font-weight="700" fill="#60718c" letter-spacing="1.4">COURT PACE · HAMBURG</text>
        <text x="14" y="50" font-size="24" font-weight="800" fill="#f6f8fc">26.8</text>
        <rect x="64" y="36" width="78" height="16" rx="8" fill="rgba(255,138,61,0.16)" stroke="rgba(255,138,61,0.32)"/>
        <text x="103" y="47" font-size="9" font-weight="700" fill="#ff8a3d" text-anchor="middle">MEDIUM CLAY</text>
        <rect x="148" y="36" width="62" height="16" rx="8" fill="rgba(74,163,255,0.16)" stroke="rgba(74,163,255,0.32)"/>
        <text x="179" y="47" font-size="9" font-weight="700" fill="#4aa3ff" text-anchor="middle">#54 of 58</text>
        <text x="14" y="68" font-size="9" fill="#8ea0bb">CLICK ↗</text>
      </g>
      <!-- Latest Tree KPI -->
      <g transform="translate(524, 16)">
        <rect width="240" height="76" rx="10" fill="rgba(16,37,61,0.85)" stroke="rgba(138,170,210,0.16)"/>
        <text x="14" y="22" font-size="9" font-weight="700" fill="#60718c" letter-spacing="1.4">LATEST TREE</text>
        <text x="14" y="50" font-size="22" font-weight="800" fill="#ffd11a">Tommy Paul <tspan fill="#8ea0bb" font-size="14">· +0.50</tspan></text>
        <text x="14" y="68" font-size="9" fill="#8ea0bb">7.91 actual vs 7.41 avg</text>
      </g>
    </g>

    <!-- Tournament filter chips -->
    <g transform="translate(16, 106)" font-family="'Inter', sans-serif">
      <rect x="0" y="0" width="118" height="26" rx="13" fill="rgba(138,170,210,0.06)" stroke="rgba(138,170,210,0.16)"/>
      <rect x="6" y="6" width="34" height="14" rx="3" fill="rgba(255,209,26,0.16)" stroke="rgba(255,209,26,0.32)"/>
      <text x="23" y="16" font-size="8" font-weight="800" fill="#ffd11a" text-anchor="middle">SLAM</text>
      <text x="48" y="17" font-size="10" fill="#8ea0bb">🇫🇷 Roland Garros 11</text>

      <rect x="128" y="0" width="180" height="26" rx="13" fill="rgba(255,209,26,0.14)" stroke="rgba(255,209,26,0.32)"/>
      <rect x="134" y="6" width="28" height="14" rx="3" fill="rgba(255,138,61,0.16)" stroke="rgba(255,138,61,0.32)"/>
      <text x="148" y="16" font-size="8" font-weight="800" fill="#ff8a3d" text-anchor="middle">500</text>
      <text x="170" y="17" font-size="10" fill="#ffd11a" font-weight="700">🇩🇪 Hamburg European Open 7</text>

      <rect x="318" y="0" width="94" height="26" rx="13" fill="rgba(138,170,210,0.06)" stroke="rgba(138,170,210,0.16)"/>
      <rect x="324" y="6" width="28" height="14" rx="3" fill="rgba(74,163,255,0.16)" stroke="rgba(74,163,255,0.32)"/>
      <text x="338" y="16" font-size="8" font-weight="800" fill="#4aa3ff" text-anchor="middle">250</text>
      <text x="358" y="17" font-size="10" fill="#8ea0bb">🇨🇭 Geneva 5</text>

      <!-- Refresh meta -->
      <circle cx="638" cy="13" r="3" fill="#19d27f"/>
      <text x="648" y="17" font-size="10" fill="#8ea0bb">23 matchups · 13m ago</text>
    </g>

    <!-- Matchups table -->
    <g transform="translate(16, 146)" font-family="'Inter', sans-serif">
      <!-- Header row -->
      <text x="0" y="0" font-size="8" font-weight="700" fill="#60718c" letter-spacing="1">PLAYER</text>
      <text x="200" y="0" font-size="8" font-weight="700" fill="#60718c" letter-spacing="1">OPPONENT</text>
      <text x="400" y="0" font-size="8" font-weight="700" fill="#60718c" letter-spacing="1" text-anchor="middle">MODEL</text>
      <text x="450" y="0" font-size="8" font-weight="700" fill="#60718c" letter-spacing="1" text-anchor="middle">KALSHI</text>
      <text x="510" y="0" font-size="8" font-weight="700" fill="#60718c" letter-spacing="1" text-anchor="middle">EDGE ↓</text>
      <text x="570" y="0" font-size="8" font-weight="700" fill="#60718c" letter-spacing="2">•••</text>
      <text x="605" y="0" font-size="8" font-weight="700" fill="#60718c" letter-spacing="2">•••</text>
      <text x="640" y="0" font-size="8" font-weight="700" fill="#60718c" letter-spacing="2">•••</text>
      <text x="680" y="0" font-size="8" font-weight="700" fill="#60718c" letter-spacing="1">TIME</text>
      <line x1="0" y1="6" x2="748" y2="6" stroke="rgba(138,170,210,0.16)"/>

      <!-- Row 1: Schoenhaus -->
      <g transform="translate(0, 24)">
        <text x="0" y="3" font-size="11" font-weight="700" fill="#f6f8fc">🇺🇸 Mark Schoenhaus</text>
        <text x="200" y="3" font-size="11" fill="#f6f8fc">🇩🇪 Yannick Hanfmann</text>
        <g transform="translate(400, -10)">
          <rect x="-22" y="0" width="44" height="16" rx="4" fill="rgba(138,170,210,0.05)" stroke="rgba(138,170,210,0.16)"/>
          <text x="0" y="11" font-size="10" font-weight="700" fill="#f6f8fc" text-anchor="middle">5.92</text>
        </g>
        <g transform="translate(450, -10)">
          <rect x="-22" y="0" width="44" height="16" rx="4" fill="rgba(255,209,26,0.14)" stroke="rgba(255,209,26,0.32)"/>
          <text x="0" y="11" font-size="10" font-weight="700" fill="#ffd11a" text-anchor="middle">22.5%</text>
        </g>
        <g transform="translate(510, -10)">
          <rect x="-22" y="0" width="44" height="16" rx="4" fill="rgba(25,210,127,0.14)" stroke="rgba(25,210,127,0.32)"/>
          <text x="0" y="11" font-size="10" font-weight="700" fill="#19d27f" text-anchor="middle">+28.7</text>
        </g>
        <g transform="translate(570, -10)">
          <rect x="-15" y="0" width="30" height="16" rx="4" fill="rgba(25,210,127,0.14)" stroke="rgba(25,210,127,0.32)"/>
          <text x="0" y="11" font-size="9" font-weight="700" fill="#19d27f" text-anchor="middle">7.28</text>
        </g>
        <g transform="translate(605, -10)">
          <rect x="-15" y="0" width="30" height="16" rx="4" fill="rgba(255,209,26,0.14)" stroke="rgba(255,209,26,0.32)"/>
          <text x="0" y="11" font-size="9" font-weight="700" fill="#ffd11a" text-anchor="middle">5.48</text>
        </g>
        <g transform="translate(640, -10)">
          <rect x="-15" y="0" width="30" height="16" rx="4" fill="rgba(74,163,255,0.14)" stroke="rgba(74,163,255,0.32)"/>
          <text x="0" y="11" font-size="9" font-weight="700" fill="#4aa3ff" text-anchor="middle">8.1</text>
        </g>
        <text x="680" y="3" font-size="10" fill="#60718c">7:30 AM</text>
      </g>

      <!-- Row 2: Hijikata -->
      <g transform="translate(0, 50)">
        <text x="0" y="3" font-size="11" font-weight="700" fill="#f6f8fc">🇦🇺 Rinky Hijikata</text>
        <text x="200" y="3" font-size="11" fill="#f6f8fc">🇩🇪 Daniel Altmaier</text>
        <g transform="translate(400, -10)">
          <rect x="-22" y="0" width="44" height="16" rx="4" fill="rgba(138,170,210,0.05)" stroke="rgba(138,170,210,0.16)"/>
          <text x="0" y="11" font-size="10" font-weight="700" fill="#f6f8fc" text-anchor="middle">5.52</text>
        </g>
        <g transform="translate(450, -10)">
          <rect x="-22" y="0" width="44" height="16" rx="4" fill="rgba(255,209,26,0.14)" stroke="rgba(255,209,26,0.32)"/>
          <text x="0" y="11" font-size="10" font-weight="700" fill="#ffd11a" text-anchor="middle">29.0%</text>
        </g>
        <g transform="translate(510, -10)">
          <rect x="-22" y="0" width="44" height="16" rx="4" fill="rgba(25,210,127,0.14)" stroke="rgba(25,210,127,0.32)"/>
          <text x="0" y="11" font-size="10" font-weight="700" fill="#19d27f" text-anchor="middle">+15.0</text>
        </g>
        <g transform="translate(570, -10)">
          <rect x="-15" y="0" width="30" height="16" rx="4" fill="rgba(138,170,210,0.05)" stroke="rgba(138,170,210,0.16)"/>
          <text x="0" y="11" font-size="9" font-weight="700" fill="#f6f8fc" text-anchor="middle">6.89</text>
        </g>
        <g transform="translate(605, -10)">
          <rect x="-15" y="0" width="30" height="16" rx="4" fill="rgba(255,209,26,0.14)" stroke="rgba(255,209,26,0.32)"/>
          <text x="0" y="11" font-size="9" font-weight="700" fill="#ffd11a" text-anchor="middle">6.2</text>
        </g>
        <g transform="translate(640, -10)">
          <rect x="-15" y="0" width="30" height="16" rx="4" fill="rgba(138,170,210,0.05)" stroke="rgba(138,170,210,0.16)"/>
          <text x="0" y="11" font-size="9" font-weight="700" fill="#f6f8fc" text-anchor="middle">7.6</text>
        </g>
        <text x="680" y="3" font-size="10" fill="#60718c">9:00 AM</text>
      </g>

      <!-- Row 3: Atmane -->
      <g transform="translate(0, 76)">
        <text x="0" y="3" font-size="11" font-weight="700" fill="#f6f8fc">🇫🇷 Terence Atmane</text>
        <text x="200" y="3" font-size="11" fill="#f6f8fc">🇦🇷 Tomas Etcheverry</text>
        <g transform="translate(400, -10)">
          <rect x="-22" y="0" width="44" height="16" rx="4" fill="rgba(138,170,210,0.05)" stroke="rgba(138,170,210,0.16)"/>
          <text x="0" y="11" font-size="10" font-weight="700" fill="#f6f8fc" text-anchor="middle">5.88</text>
        </g>
        <g transform="translate(450, -10)">
          <rect x="-22" y="0" width="44" height="16" rx="4" fill="rgba(255,209,26,0.14)" stroke="rgba(255,209,26,0.32)"/>
          <text x="0" y="11" font-size="10" font-weight="700" fill="#ffd11a" text-anchor="middle">36.5%</text>
        </g>
        <g transform="translate(510, -10)">
          <rect x="-22" y="0" width="44" height="16" rx="4" fill="rgba(25,210,127,0.14)" stroke="rgba(25,210,127,0.32)"/>
          <text x="0" y="11" font-size="10" font-weight="700" fill="#19d27f" text-anchor="middle">+12.0</text>
        </g>
        <g transform="translate(570, -10)">
          <rect x="-15" y="0" width="30" height="16" rx="4" fill="rgba(25,210,127,0.14)" stroke="rgba(25,210,127,0.32)"/>
          <text x="0" y="11" font-size="9" font-weight="700" fill="#19d27f" text-anchor="middle">7.36</text>
        </g>
        <g transform="translate(605, -10)">
          <rect x="-15" y="0" width="30" height="16" rx="4" fill="rgba(255,209,26,0.14)" stroke="rgba(255,209,26,0.32)"/>
          <text x="0" y="11" font-size="9" font-weight="700" fill="#ffd11a" text-anchor="middle">5.27</text>
        </g>
        <g transform="translate(640, -10)">
          <rect x="-15" y="0" width="30" height="16" rx="4" fill="rgba(74,163,255,0.14)" stroke="rgba(74,163,255,0.32)"/>
          <text x="0" y="11" font-size="9" font-weight="700" fill="#4aa3ff" text-anchor="middle">8.1</text>
        </g>
        <text x="680" y="3" font-size="10" fill="#60718c">7:10 AM</text>
      </g>

      <!-- Row 4: Struff (active highlight) -->
      <g transform="translate(0, 102)">
        <rect x="-12" y="-12" width="760" height="22" fill="rgba(255,209,26,0.05)"/>
        <rect x="-12" y="-12" width="3" height="22" fill="#ffd11a"/>
        <text x="0" y="3" font-size="11" font-weight="700" fill="#f6f8fc">🇩🇪 Jan-Lennard Struff</text>
        <text x="200" y="3" font-size="11" fill="#f6f8fc">🇨🇿 Jakub Mensik</text>
        <g transform="translate(400, -10)">
          <rect x="-22" y="0" width="44" height="16" rx="4" fill="rgba(138,170,210,0.05)" stroke="rgba(138,170,210,0.16)"/>
          <text x="0" y="11" font-size="10" font-weight="700" fill="#f6f8fc" text-anchor="middle">5.55</text>
        </g>
        <g transform="translate(450, -10)">
          <rect x="-22" y="0" width="44" height="16" rx="4" fill="rgba(255,209,26,0.14)" stroke="rgba(255,209,26,0.32)"/>
          <text x="0" y="11" font-size="10" font-weight="700" fill="#ffd11a" text-anchor="middle">26.5%</text>
        </g>
        <g transform="translate(510, -10)">
          <rect x="-22" y="0" width="44" height="16" rx="4" fill="rgba(25,210,127,0.14)" stroke="rgba(25,210,127,0.32)"/>
          <text x="0" y="11" font-size="10" font-weight="700" fill="#19d27f" text-anchor="middle">+9.6</text>
        </g>
        <g transform="translate(570, -10)">
          <rect x="-15" y="0" width="30" height="16" rx="4" fill="rgba(138,170,210,0.05)" stroke="rgba(138,170,210,0.16)"/>
          <text x="0" y="11" font-size="9" font-weight="700" fill="#f6f8fc" text-anchor="middle">7.00</text>
        </g>
        <g transform="translate(605, -10)">
          <rect x="-15" y="0" width="30" height="16" rx="4" fill="rgba(138,170,210,0.05)" stroke="rgba(138,170,210,0.16)"/>
          <text x="0" y="11" font-size="9" font-weight="700" fill="#f6f8fc" text-anchor="middle">4.63</text>
        </g>
        <g transform="translate(640, -10)">
          <rect x="-15" y="0" width="30" height="16" rx="4" fill="rgba(74,163,255,0.14)" stroke="rgba(74,163,255,0.32)"/>
          <text x="0" y="11" font-size="9" font-weight="700" fill="#4aa3ff" text-anchor="middle">8.0</text>
        </g>
        <text x="680" y="3" font-size="10" fill="#60718c">12:00 PM</text>
      </g>

      <!-- Row 5: Cerundolo (faded edge) -->
      <g transform="translate(0, 128)" opacity="0.7">
        <text x="0" y="3" font-size="11" font-weight="700" fill="#f6f8fc">🇦🇷 Francisco Cerundolo</text>
        <text x="200" y="3" font-size="11" fill="#f6f8fc">🇦🇺 Alex De Minaur</text>
        <g transform="translate(400, -10)">
          <rect x="-22" y="0" width="44" height="16" rx="4" fill="rgba(138,170,210,0.05)" stroke="rgba(138,170,210,0.16)"/>
          <text x="0" y="11" font-size="10" font-weight="700" fill="#f6f8fc" text-anchor="middle">6.27</text>
        </g>
        <g transform="translate(450, -10)">
          <rect x="-22" y="0" width="44" height="16" rx="4" fill="rgba(255,209,26,0.14)" stroke="rgba(255,209,26,0.32)"/>
          <text x="0" y="11" font-size="10" font-weight="700" fill="#ffd11a" text-anchor="middle">62.5%</text>
        </g>
        <g transform="translate(510, -10)">
          <rect x="-22" y="0" width="44" height="16" rx="4" fill="rgba(25,210,127,0.14)" stroke="rgba(25,210,127,0.32)"/>
          <text x="0" y="11" font-size="10" font-weight="700" fill="#19d27f" text-anchor="middle">+2.7</text>
        </g>
        <g transform="translate(570, -10)">
          <rect x="-15" y="0" width="30" height="16" rx="4" fill="rgba(25,210,127,0.14)" stroke="rgba(25,210,127,0.32)"/>
          <text x="0" y="11" font-size="9" font-weight="700" fill="#19d27f" text-anchor="middle">7.92</text>
        </g>
        <g transform="translate(605, -10)">
          <rect x="-15" y="0" width="30" height="16" rx="4" fill="rgba(138,170,210,0.05)" stroke="rgba(138,170,210,0.16)"/>
          <text x="0" y="11" font-size="9" font-weight="700" fill="#f6f8fc" text-anchor="middle">5.27</text>
        </g>
        <g transform="translate(640, -10)">
          <rect x="-15" y="0" width="30" height="16" rx="4" fill="rgba(255,209,26,0.14)" stroke="rgba(255,209,26,0.32)"/>
          <text x="0" y="11" font-size="9" font-weight="700" fill="#ffd11a" text-anchor="middle">7.4</text>
        </g>
        <text x="680" y="3" font-size="10" fill="#60718c">6:00 AM</text>
      </g>

      <!-- gradient fade at bottom -->
      <rect x="-16" y="135" width="780" height="40" fill="url(#vignette)"/>
    </g>
  </g>

  <!-- ── LEFT PHONE: PrizePicks projections (compact) ── -->
  <g transform="translate(252, 318) rotate(-9)" filter="url(#deviceShadow)">
    <!-- Phone frame -->
    <rect x="0" y="0" width="220" height="280" rx="26" fill="#0a1c30" stroke="rgba(138,170,210,0.32)" stroke-width="2"/>
    <rect x="0" y="0" width="220" height="3" rx="26" fill="url(#panelEdge)" opacity="0.9"/>
    <!-- Notch -->
    <rect x="80" y="8" width="60" height="14" rx="7" fill="#000"/>
    <circle cx="92" cy="15" r="2" fill="#1a2942"/>

    <g transform="translate(14, 32)" font-family="'Inter', sans-serif">
      <!-- Top bar -->
      <text x="0" y="0" font-size="10" font-weight="700" fill="#ffd11a">OverOwned</text>
      <text x="192" y="0" font-size="8" fill="#8ea0bb" text-anchor="end">●</text>

      <!-- PrizePicks header -->
      <text x="0" y="22" font-size="8" font-weight="700" fill="#ffd11a" letter-spacing="1.2">PRIZEPICKS TENNIS</text>
      <text x="0" y="42" font-size="16" font-weight="800" fill="#f6f8fc">20 Fan Score</text>
      <g transform="translate(120, 32)">
        <rect x="0" y="0" width="38" height="14" rx="7" fill="rgba(25,210,127,0.16)" stroke="rgba(25,210,127,0.32)"/>
        <circle cx="7" cy="7" r="2.5" fill="#19d27f"/>
        <text x="14" y="10" font-size="8" font-weight="700" fill="#19d27f">LIVE</text>
      </g>

      <!-- Search bar -->
      <rect x="0" y="56" width="192" height="22" rx="6" fill="rgba(6,17,31,0.6)" stroke="rgba(138,170,210,0.12)"/>
      <text x="8" y="71" font-size="9" fill="#60718c">🔍 Search a player…</text>

      <!-- Header row -->
      <text x="0" y="98" font-size="7" font-weight="700" fill="#60718c" letter-spacing="0.8">PLAYER</text>
      <text x="105" y="98" font-size="7" font-weight="700" fill="#60718c" letter-spacing="0.8">FS</text>
      <text x="140" y="98" font-size="7" font-weight="700" fill="#60718c" letter-spacing="0.8">P(OVR)</text>
      <text x="184" y="98" font-size="7" font-weight="700" fill="#60718c" letter-spacing="0.8">EDG</text>
      <line x1="0" y1="103" x2="192" y2="103" stroke="rgba(138,170,210,0.12)"/>

      <!-- Rows -->
      <g transform="translate(0, 118)">
        <text x="0" y="0" font-size="9" font-weight="700" fill="#f6f8fc">Kalinina</text>
        <text x="105" y="0" font-size="9" font-weight="700" fill="#f6f8fc">17.0</text>
        <text x="140" y="0" font-size="9" fill="#4aa3ff" font-weight="700">22%</text>
        <text x="184" y="0" font-size="9" fill="#ff5d4f" font-weight="700">−5.7</text>
      </g>
      <g transform="translate(0, 134)">
        <text x="0" y="0" font-size="9" font-weight="700" fill="#f6f8fc">Grabher</text>
        <text x="105" y="0" font-size="9" font-weight="700" fill="#f6f8fc">13.0</text>
        <text x="140" y="0" font-size="9" fill="#4aa3ff" font-weight="700">22%</text>
        <text x="184" y="0" font-size="9" fill="#ff5d4f" font-weight="700">−5.3</text>
      </g>
      <g transform="translate(0, 150)">
        <text x="0" y="0" font-size="9" font-weight="700" fill="#f6f8fc">Mensik</text>
        <text x="105" y="0" font-size="9" font-weight="700" fill="#f6f8fc">21.5</text>
        <text x="140" y="0" font-size="9" fill="#4aa3ff" font-weight="700">23%</text>
        <text x="184" y="0" font-size="9" fill="#ff5d4f" font-weight="700">−4.8</text>
      </g>
      <g transform="translate(0, 166)">
        <text x="0" y="0" font-size="9" font-weight="700" fill="#f6f8fc">Bondar</text>
        <text x="105" y="0" font-size="9" font-weight="700" fill="#f6f8fc">21.0</text>
        <text x="140" y="0" font-size="9" fill="#4aa3ff" font-weight="700">29%</text>
        <text x="184" y="0" font-size="9" fill="#ff5d4f" font-weight="700">−3.9</text>
      </g>
      <g transform="translate(0, 182)">
        <text x="0" y="0" font-size="9" font-weight="700" fill="#f6f8fc">Sonego</text>
        <text x="105" y="0" font-size="9" font-weight="700" fill="#f6f8fc">16.5</text>
        <text x="140" y="0" font-size="9" fill="#4aa3ff" font-weight="700">31%</text>
        <text x="184" y="0" font-size="9" fill="#ff5d4f" font-weight="700">−3.9</text>
      </g>
      <g transform="translate(0, 198)">
        <text x="0" y="0" font-size="9" font-weight="700" fill="#f6f8fc">Kasatkina</text>
        <text x="105" y="0" font-size="9" font-weight="700" fill="#f6f8fc">12.0</text>
        <text x="140" y="0" font-size="9" fill="#4aa3ff" font-weight="700">32%</text>
        <text x="184" y="0" font-size="9" fill="#ff5d4f" font-weight="700">−3.7</text>
      </g>
      <g transform="translate(0, 214)">
        <text x="0" y="0" font-size="9" font-weight="700" fill="#f6f8fc">Baez</text>
        <text x="105" y="0" font-size="9" font-weight="700" fill="#f6f8fc">15.5</text>
        <text x="140" y="0" font-size="9" fill="#4aa3ff" font-weight="700">35%</text>
        <text x="184" y="0" font-size="9" fill="#ff5d4f" font-weight="700">−3.0</text>
      </g>
    </g>

    <!-- Bottom freshness -->
    <g transform="translate(14, 268)">
      <circle cx="3" cy="-3" r="2.5" fill="#19d27f"/>
      <text x="10" y="0" font-size="8" fill="#8ea0bb">Refreshed 13m ago</text>
    </g>
  </g>
</svg>
